<svg width="400" height="400" viewBox="0 0 400 400" fill="none" xmlns="http://www.w3.org/2000/svg">
  <path d="M255,100 C255,85 245,75 245,75 L245,55 C245,45 235,40 225,40 C215,40 205,45 205,55 L205,75 C205,75 195,85 195,100 L210,100 L210,210 C180,210 160,225 150,245 C120,245 90,270 80,310 C70,360 120,380 150,370 C180,360 190,320 210,300 C230,340 260,370 300,350 C340,330 350,260 310,220 C290,200 260,210 240,210 L240,100 L255,100 Z" fill="#61B1FF"/>
  
  <path d="M210,110 L240,110 M210,130 L240,130 M210,150 L240,150 M210,170 L240,170" stroke="white" stroke-width="2" opacity="0.3"/>
  
  <rect x="185" y="170" width="15" height="10" fill="#61B1FF" opacity="0.8"/>
  <line x1="200" y1="170" x2="200" y2="200" stroke="#61B1FF" stroke-width="2"/>
  
  <path d="M140,310 Q160,290 180,310 T220,310" stroke="white" stroke-width="4" stroke-linecap="round" opacity="0.2"/>
</svg>
